<svg xmlns="http://www.w3.org/2000/svg" width="1667.807" height="1680.228" viewBox="0 0 1667.807 1680.228">
  <g id="Group_21" data-name="Group 21" transform="translate(-0.006)">
    <path id="Path_231" data-name="Path 231" d="M562.24,954.048a8.985,8.985,0,0,1-6.512-15.573l.616-2.448a24.139,24.139,0,0,0-44.752-.422c-10.648,24.925-24.43,50.728-17.576,78.18-45.272-95.948-29.876-215.3,37.03-297.352,18.493-10.187,33.483-28.287,37.385-49.3-9.153,3.1-20.564-4.344-13.683-13.985,2.983-3.684,5.995-7.34,8.977-11.025-34.768-37.027-76.192,21.166-37.923,71.141a288.067,288.067,0,0,0-32.355,50.608,121.123,121.123,0,0,0-7.231-56.259c-6.921-16.7-19.895-30.76-31.319-45.195-13.891-17.588-42.479-9.474-44.349,12.846,12.819,4.213,14.485,22.731-.179,25.265,3.841,41.522,30.967,79.68,68.329,97.89a289.191,289.191,0,0,0-15.8,120.879C456.3,871.43,404.917,859.813,369,840.788a13.99,13.99,0,0,0-21.336,14.17,80.781,80.781,0,0,1,14.164,7.472,12.212,12.212,0,0,1-5.674,22.294c18.1,44.8,64.907,74.891,112.977,74.722a297.321,297.321,0,0,0,19.972,58.3h71.346c.256-.793.486-1.611.716-2.4a81.064,81.064,0,0,1-19.742-1.176c17.472-20.687,30.984-31.241,20.816-60.12Z" transform="translate(-141.534 658.316)" fill="#f2f2f2"/>
    <path id="Path_232" data-name="Path 232" d="M693.327,954.048a8.985,8.985,0,0,0,6.511-15.573c-.227-.9-.389-1.547-.616-2.448a24.139,24.139,0,0,1,44.752-.422c10.648,24.925,24.43,50.728,17.576,78.18,45.272-95.948,29.876-215.3-37.029-297.352-18.494-10.187-33.483-28.287-37.385-49.3,9.152,3.1,20.564-4.344,13.682-13.985-2.983-3.684-5.995-7.34-8.977-11.025,34.767-37.027,76.193,21.166,37.923,71.141a288.084,288.084,0,0,1,32.354,50.608,121.126,121.126,0,0,1,7.231-56.259c6.922-16.7,19.895-30.76,31.319-45.195,13.891-17.588,42.479-9.474,44.349,12.846-12.819,4.213-14.485,22.731.179,25.265-3.841,41.522-30.967,79.68-68.329,97.89a289.185,289.185,0,0,1,15.8,120.879c6.595-47.868,57.978-59.484,93.892-78.509a13.99,13.99,0,0,1,21.336,14.17,80.767,80.767,0,0,0-14.163,7.472,12.212,12.212,0,0,0,5.674,22.294c-18.1,44.8-64.908,74.891-112.978,74.722a297.289,297.289,0,0,1-19.972,58.3H695.115c-.256-.793-.486-1.611-.716-2.4a81.066,81.066,0,0,0,19.742-1.176c-17.472-20.687-30.985-31.241-20.816-60.12Z" transform="translate(363.443 658.316)" fill="#f2f2f2"/>
    <path id="Path_233" data-name="Path 233" d="M478.853,723.526l-30.725,6.987L406.541,615.327,451.89,605.01Z" transform="translate(604.372 899.434)" fill="#ffb6b6"/>
    <path id="Path_234" data-name="Path 234" d="M760.851,802.638l-94.485,21.5-.272-1.195A37.719,37.719,0,0,1,694.5,777.8h0l14.279-17.021,35.181,5.767,8.248-1.877Z" transform="translate(330.75 852.126)" fill="#2f2e41"/>
    <path id="Path_235" data-name="Path 235" d="M696.289,426.88l16.889,26.6L618.616,531.3l-24.931-39.262Z" transform="translate(882.588 634.618)" fill="#ffb6b6"/>
    <path id="Path_236" data-name="Path 236" d="M930.163,531.565l51.948,81.8-1.035.657A37.718,37.718,0,0,1,929.018,602.4v0l-20.825-7.742-6.368-35.078-4.535-7.141Z" transform="translate(675.866 511.372)" fill="#2f2e41"/>
    <path id="Path_237" data-name="Path 237" d="M510.255,523.914l-7.589-43.986,115.374-52.1,24.916-44.113a21.449,21.449,0,1,1,31.678,14.237L633.647,461.32Z" transform="translate(89.202 253.193)" fill="#a0616a"/>
    <path id="Path_238" data-name="Path 238" d="M226.971,313.919l51.956-26.54,13.754,51.643-36.089,26.751Z" transform="translate(337.415 427.23)" fill="#54a591"/>
    <path id="Path_239" data-name="Path 239" d="M180.09,723.506l31.414,0,14.945-121.172-46.366,0Z" transform="translate(267.71 895.452)" fill="#a0616a"/>
    <path id="Path_240" data-name="Path 240" d="M495,777.081v-21.3l-8.259.5-33.619,1.992-7.781.478-5.948,71.327-.319,3.824h22.306l.717-3.8,3.24-17.26,8.365,17.261,1.832,3.8h59.138a13.362,13.362,0,0,0,13.277-13.3C550.448,808.947,501.268,783.746,495,777.081Z" transform="translate(-5.334 844.705)" fill="#2f2e41"/>
    <path id="Path_241" data-name="Path 241" d="M34.5,457.676l-7.323,30.551,114.348,42.785,10.807-45.088Z" transform="translate(40.394 680.401)" fill="#a0616a"/>
    <path id="Path_242" data-name="Path 242" d="M329.514,626.369l20.71,4.966,1.435-8.149,5.9-33.156,1.349-7.678-67.974-22.415-3.644-1.2-5.2,21.691,3.526,1.582,16.03,7.175-18.735,4.11-4.12.9L265,651.7a13.363,13.363,0,0,0,9.842,16.014C285.6,672.857,321.571,630.908,329.514,626.369Z" transform="translate(-264.644 551.764)" fill="#2f2e41"/>
    <path id="Path_243" data-name="Path 243" d="M584.658,459.14l-40.436-18.9-80.637,97.585-49.117,12.422a21.449,21.449,0,1,0,5.394,34.309L491.785,561.7Z" transform="translate(-88.285 375.601)" fill="#a0616a"/>
    <path id="Path_244" data-name="Path 244" d="M720.711,354.381a43.337,43.337,0,1,1,43.336-43.337,43.337,43.337,0,0,1-43.336,43.337Zm0-81.7a38.363,38.363,0,1,0,38.363,38.363,38.363,38.363,0,0,0-38.363-38.363Z" transform="translate(348.93 119.112)" fill="#e6e6e6"/>
    <path id="Path_245" data-name="Path 245" d="M700.851,311.794c-.087,0-.174,0-.261-.007a5.342,5.342,0,0,1-3.96-2.057l-6.827-8.777a5.344,5.344,0,0,1,.937-7.5l.246-.191a5.344,5.344,0,0,1,7.5.938,3.9,3.9,0,0,0,5.9.287l13.861-14.633a5.353,5.353,0,0,1,7.557-.205l.227.217a5.343,5.343,0,0,1,.2,7.556l-21.51,22.7a5.339,5.339,0,0,1-3.879,1.669Z" transform="translate(365.732 134.688)" fill="#e6e6e6"/>
    <path id="Path_246" data-name="Path 246" d="M633.711,565.381a43.337,43.337,0,1,1,43.337-43.337,43.337,43.337,0,0,1-43.337,43.337Zm0-81.7a38.363,38.363,0,1,0,38.363,38.363,38.363,38.363,0,0,0-38.363-38.363Z" transform="translate(219.592 432.793)" fill="#e6e6e6"/>
    <path id="Path_247" data-name="Path 247" d="M613.851,522.794c-.087,0-.174,0-.261-.007a5.342,5.342,0,0,1-3.96-2.058l-6.827-8.776a5.344,5.344,0,0,1,.937-7.5l.245-.191a5.344,5.344,0,0,1,7.5.937,3.9,3.9,0,0,0,5.9.288l13.861-14.633a5.352,5.352,0,0,1,7.557-.205l.227.217a5.344,5.344,0,0,1,.2,7.556l-21.51,22.7A5.34,5.34,0,0,1,613.851,522.794Z" transform="translate(236.394 448.37)" fill="#e6e6e6"/>
    <path id="Path_248" data-name="Path 248" d="M442.711,330.382a43.337,43.337,0,1,1,43.336-43.337A43.337,43.337,0,0,1,442.711,330.382Zm0-81.7a38.363,38.363,0,1,0,38.363,38.363A38.363,38.363,0,0,0,442.711,248.682Z" transform="translate(-64.356 83.432)" fill="#e6e6e6"/>
    <path id="Path_249" data-name="Path 249" d="M422.851,287.794c-.087,0-.174,0-.261-.007a5.342,5.342,0,0,1-3.96-2.058l-6.827-8.777a5.344,5.344,0,0,1,.937-7.5l.246-.191a5.343,5.343,0,0,1,7.5.938,3.9,3.9,0,0,0,5.9.287l13.861-14.633a5.352,5.352,0,0,1,7.557-.205l.227.216a5.343,5.343,0,0,1,.2,7.556l-21.51,22.7A5.338,5.338,0,0,1,422.851,287.794Z" transform="translate(-47.555 99.009)" fill="#e6e6e6"/>
    <path id="Path_250" data-name="Path 250" d="M959.18,741.121c-100.492,0-215.983-111.516-318.163-58.532C331.641,843.012,374.229,574.569,285.348,474.734l2.918-5.853c98.07,87.935,220.514,159.482,354.095,206.9C763.076,718.638,884.7,738.495,994.03,733.254l.19,7.035Q976.9,741.124,959.18,741.121Z" transform="translate(-233.874 418.183)" fill="#f2f2f2"/>
    <ellipse id="Ellipse_25" data-name="Ellipse 25" cx="21.006" cy="28.167" rx="21.006" ry="28.167" transform="translate(566.452 348.996)" fill="#e6e6e6"/>
    <path id="Path_251" data-name="Path 251" d="M606.647,461.718c-9.6,6.4-19.433-8.831-9.644-14.945C606.605,440.374,616.434,455.6,606.647,461.718Z" transform="translate(223.424 383.028)" fill="#e6e6e6"/>
    <circle id="Ellipse_26" data-name="Ellipse 26" cx="27.353" cy="27.353" r="27.353" transform="translate(747.441 277.335)" fill="#ff6584"/>
    <path id="Path_252" data-name="Path 252" d="M624.936,566.73,780.583,112.149,609.673,561.288a8.558,8.558,0,1,0,15.263,5.442Z" transform="translate(245.529 -112.149)" fill="#f0f0f0" opacity="0.3" style="isolation: isolate"/>
    <circle id="Ellipse_27" data-name="Ellipse 27" cx="26.613" cy="26.613" r="26.613" transform="translate(686.746 955.167)" fill="#f2f2f2"/>
    <path id="Path_253" data-name="Path 253" d="M617.723,511.053s-66.345,43.2-48.8,71.908c.605.99-79.249,106.456-79.249,106.456l-150.745-9.57L333.616,730.3l134.2,38.869s32.831,24.121,58.195-2.455S635.86,658.757,635.86,658.757l4.075,164.309-42.41,227.684,63.323-4.015L722.48,818.311l22.75-258.746Z" transform="translate(-162.116 480.878)" fill="#2f2e41"/>
    <path id="Path_254" data-name="Path 254" d="M525.537,413.357l-27.9,21.143-31.8,67.87L496.416,543.9s25.721,44.577-15.45,87.747-72.786,89.278-39.832,87.632,166.418,66.237,167.3,10.622,2.656-98.254,2.656-98.254l34.992-88.751s20.847-52.945,6.211-68.793S618.054,438,618.054,438l-35.639-35.639h-32.18Z" transform="translate(-22.673 319.295)" fill="#54a591"/>
    <path id="Path_255" data-name="Path 255" d="M536.215,358.579c62.59,35.616,11.207,129.589-52.55,96.126C421.077,419.09,472.46,325.117,536.215,358.579Z" transform="translate(18.73 243.67)" fill="#a0616a"/>
    <path id="Path_256" data-name="Path 256" d="M584.924,394.21c-4.385,5.7-13.548,3.029-31.491,7.1a74.8,74.8,0,0,0-2.092-18.058,50.835,50.835,0,0,1-8.571,20.322c-15.581,1.728,3.519,49.061-4.459,83.861-10.278-73.418-31.9-54.183-20.976-39.621,6.992,9.323,2.331,37.29-18.645,23.306-34.609,16.448-83.9-65.258-29.27-103.577-.976-20.713,22.07-23.985,36.262-17.617C540.124,324.271,579.473,357.146,584.924,394.21Z" transform="translate(3.49 227.787)" fill="#2f2e41"/>
    <path id="Path_257" data-name="Path 257" d="M515.051,345.348c-13.935,85.676-88.624-15.757-123.743,68.557-11.042,30.534,7.9,52.376,19.887,77.72,2.735,20.828-24.361,31.4-27.2,50.568-.79,43.955,70.123,41.265,89.947,13.534,20.37-29.03-3.955-67.979,8.289-99.139,17.208-43.261,87.191-43.583,93.288-93.913C563.712,345.861,531.962,326.6,515.051,345.348Z" transform="translate(-87.229 223.077)" fill="#2f2e41"/>
    <path id="Path_258" data-name="Path 258" d="M469.186,360.228c-.456.192-.912.384-1.32.6h-.024c-.384.192-.768.384-1.151.6-.048.024-.072.048-.12.072-.5-.48-1.008-.96-1.536-1.44a5.548,5.548,0,0,0,.1,2.351l.072.288c.48.5.984.984,1.511,1.487.48-.36.936-.744,1.415-1.1.288-.24.576-.48.888-.72.048-.624.12-1.344.192-2.135Zm14.444-26.68c-10.7-2.447-14.156,11.541-15.188,18.283-3.887-24.473-20.058-16.771-14.468-.072A37.387,37.387,0,0,0,462.2,365c.5.576,1.056,1.152,1.632,1.728-.648,3.359,2.615,2.5,7.03-.6a58.808,58.808,0,0,0,9-7.894c8.806-9.237,15.668-21.594,3.767-24.689Zm.336,13.772a83.861,83.861,0,0,1-11.061,11.733q-1.908,1.727-3.887,3.311c-.024.216-.024.408-.048.576a4.4,4.4,0,0,1-.336.672c-1.344,2.423-2.855,1.1-3.431-.912-.048-.072-.12-.144-.168-.216a33.807,33.807,0,0,1-4.966-6.574c-9.909-17.179,6.046-28.864,5.255,3.215a3.041,3.041,0,0,0-.288.936,5.55,5.55,0,0,0,.1,2.351l.072.288c.48.5.984.984,1.511,1.488.48-.36.936-.744,1.416-1.1.288-.24.576-.48.888-.72.048-.624.12-1.344.192-2.135V360.2c.624-6.43,2.328-17.995,5.471-21.138,6.91-5.3,15.859.432,9.285,8.254Zm-14.78,12.908c-.456.192-.912.384-1.32.6h-.024c-.384.192-.768.384-1.152.6-.048.024-.072.048-.12.072-.5-.48-1.008-.96-1.536-1.44a5.551,5.551,0,0,0,.1,2.351l.072.288c.48.5.984.984,1.511,1.487.48-.36.936-.744,1.416-1.1.288-.24.576-.48.888-.72.048-.624.12-1.344.192-2.135Z" transform="translate(15.086 216.569)" fill="#2f2e41"/>
    <path id="Path_259" data-name="Path 259" d="M770.69,557.918,747.574,618.2,639.135,832.1l95.284,248.832,49.176-12.981L743.063,832.1,859.348,690.813l138.1,93.664s61.246,47.814,84.546,2.487,174.065-141.739,174.065-141.739l-37.3-39.786-173.615,81.248L925.314,518.023Z" transform="translate(292.083 491.24)" fill="#2f2e41"/>
    <path id="Path_260" data-name="Path 260" d="M848.536,449.523,810.484,408.64l-65.275-8.98-79.98,55.991.806,61.975,39.537,146.038s-15.06,104.922,27,103.869S797.57,745.51,814.7,749.779s89.961,22.438,94.576,3.407,29.149-5.4,28.072-23.408-66.416-147.773-66.416-147.773L887.18,452.223Z" transform="translate(330.876 315.277)" fill="#54a591"/>
    <path id="Path_261" data-name="Path 261" d="M917.128,356.733A23.308,23.308,0,0,1,892.156,382.3L804.65,548.724l-23.493-36.065L870.6,355.592a23.435,23.435,0,0,1,46.528,1.14Z" transform="translate(503.218 219.877)" fill="#ffb6b6"/>
    <path id="Path_262" data-name="Path 262" d="M725.115,536.519s-3.471,29.6,29.855,36.931,125.656-45.429,140.793-53.487c4.74-2.523,11.171-14.891,17.771-30.691,2.963-7.093,5.959-14.878,8.851-22.774,1.674-4.569,9.688-5.817,11.265-10.348,1.568-4.507-3.3-12.3-1.879-16.546,6.742-20.161,11.518-36.156,11.518-36.156L921.2,361.957c-30.892,16.332-46.736,52.305-58.389,93.75Z" transform="translate(419.75 259.226)" fill="#54a591"/>
    <path id="Path_263" data-name="Path 263" d="M568.712,375.637a23.308,23.308,0,0,0,30.576,18.506L725.659,533.37l13.72-40.8-125.9-129.685a23.434,23.434,0,0,0-44.762,12.748Z" transform="translate(186.944 239.19)" fill="#ffb6b6"/>
    <path id="Path_264" data-name="Path 264" d="M844.042,488.7s10.768,27.792-19.663,43.228-133.027-12.536-149.7-16.55c-5.22-1.257-14.542-11.621-24.885-25.267-4.643-6.126-9.493-12.913-14.269-19.835-2.764-4.005-10.835-3.207-13.5-7.2-2.646-3.971.117-12.733-2.322-16.49-11.573-17.832-20.2-32.123-20.2-32.123l11-45.7c34,8.081,58.339,38.945,79.993,76.154Z" transform="translate(233.169 269.348)" fill="#54a591"/>
    <circle id="Ellipse_28" data-name="Ellipse 28" cx="62.107" cy="62.107" r="62.107" transform="translate(1047.919 580.324)" fill="#ffb6b6"/>
    <path id="Path_265" data-name="Path 265" d="M821.586,386.57c-6.533-10.107-18.792-16.843-30.677-14.95a41.893,41.893,0,0,0-70.193-24.435,13.027,13.027,0,0,0-12.739-1.275,26.863,26.863,0,0,0-10.35,8.308,60.283,60.283,0,0,0-8.435,61.328c-1.453-5.28,3.839-10.248,9.186-11.433s10.954-.064,16.376-.836c6.949-.989,13.2-5.02,20.156-5.927a45.889,45.889,0,0,1,17.436,2.241,47.274,47.274,0,0,0,17.429,2.34c5.858-.7,13.4,21.5,13.3,37.14-.019,2.963.591,6.768,3.487,7.4,3.566.774,5.632-4.148,9.027-5.489a6.28,6.28,0,0,1,7.7,4.1,10.239,10.239,0,0,1-1.955,9.168A30.245,30.245,0,0,1,794,460.607l1.4,1.163a8.319,8.319,0,0,0,10.5,1.3,22.661,22.661,0,0,0,7.539-8.584,101.014,101.014,0,0,0,13.829-33.136C829.458,409.52,828.119,396.677,821.586,386.57Z" transform="translate(359.334 220.299)" fill="#2f2e41"/>
    <path id="Path_266" data-name="Path 266" d="M1342.342,471.037c-80.108,60.673-239.5,41.505-288.967,145.436C903.609,931.145,775.482,691.44,644.352,665.518l-1.208-6.427c131.27,10.887,272.075-6.005,407.191-48.857,122.1-38.72,231.045-96.321,315.037-166.51l4.4,5.493Q1356.47,460.341,1342.342,471.037Z" transform="translate(298.042 380.785)" fill="#f2f2f2"/>
    <path id="Path_267" data-name="Path 267" d="M1441.75,788.679c-1.908,5.651-1091.241,5.651-1093.3.014C350.356,783.027,1439.689,783.027,1441.75,788.679Z" transform="translate(-140.062 887.309)" fill="#ccc"/>
  </g>
</svg>
